<svg xmlns="http://www.w3.org/2000/svg" xmlns:xlink="http://www.w3.org/1999/xlink" width="500" zoomAndPan="magnify" viewBox="0 0 375 374.999991" height="500" preserveAspectRatio="xMidYMid meet" version="1.0"><defs><g/><clipPath id="930e7f8193"><path d="M 269.429688 156.675781 L 285 156.675781 L 285 206.175781 L 269.429688 206.175781 Z M 269.429688 156.675781 " clip-rule="nonzero"/></clipPath><clipPath id="4ccb9144ef"><rect x="0" width="314" y="0" height="80"/></clipPath></defs><g clip-path="url(#930e7f8193)"><path fill="#000000" d="M 281.109375 196.367188 C 281.132812 198.140625 281.179688 199.921875 281.136719 201.710938 L 281.128906 201.710938 C 281.226562 201.863281 281.304688 202.03125 281.355469 202.207031 C 281.40625 202.402344 281.441406 202.601562 281.449219 202.796875 C 281.460938 202.890625 281.441406 203.015625 281.433594 203.125 C 281.402344 203.230469 281.386719 203.347656 281.335938 203.441406 C 281.152344 203.84375 280.835938 204.136719 280.507812 204.363281 C 280.171875 204.585938 279.8125 204.75 279.445312 204.878906 C 278.707031 205.136719 277.929688 205.25 277.160156 205.265625 C 276.386719 205.269531 275.605469 205.195312 274.851562 204.957031 C 274.472656 204.835938 274.101562 204.683594 273.746094 204.460938 C 273.398438 204.242188 273.050781 203.953125 272.832031 203.511719 C 272.769531 203.410156 272.746094 203.277344 272.707031 203.160156 C 272.695312 203.039062 272.667969 202.886719 272.679688 202.792969 C 272.683594 202.585938 272.710938 202.371094 272.765625 202.15625 C 272.804688 201.996094 272.875 201.84375 272.960938 201.691406 L 272.945312 201.691406 L 273.167969 196.367188 C 273.183594 195.480469 273.242188 194.609375 273.128906 193.757812 L 272.824219 191.101562 C 272.617188 189.332031 272.417969 187.5625 272.238281 185.785156 C 272.050781 184.011719 271.878906 182.234375 271.726562 180.453125 C 272.066406 182.207031 272.394531 183.964844 272.699219 185.726562 C 273.019531 187.484375 273.316406 189.246094 273.605469 191.011719 L 274.042969 193.660156 L 274.097656 193.988281 L 274.128906 194.34375 C 274.144531 194.578125 274.160156 194.808594 274.164062 195.035156 C 274.175781 195.492188 274.175781 195.941406 274.164062 196.394531 C 274.128906 197.902344 274.035156 199.398438 273.890625 200.890625 C 274.164062 200.78125 274.449219 200.726562 274.722656 200.710938 C 275.117188 200.695312 275.5 200.734375 275.867188 200.828125 C 275.5 200.933594 275.140625 201.015625 274.804688 201.136719 C 274.472656 201.257812 274.164062 201.40625 273.949219 201.613281 C 273.722656 201.8125 273.601562 202.054688 273.539062 202.34375 C 273.515625 202.492188 273.488281 202.644531 273.492188 202.808594 C 273.488281 202.902344 273.503906 202.929688 273.503906 202.996094 C 273.53125 203.050781 273.527344 203.109375 273.566406 203.167969 C 273.671875 203.394531 273.902344 203.617188 274.175781 203.789062 C 274.449219 203.964844 274.761719 204.101562 275.089844 204.210938 C 275.746094 204.421875 276.453125 204.527344 277.160156 204.542969 C 277.867188 204.546875 278.582031 204.480469 279.253906 204.289062 C 279.589844 204.1875 279.917969 204.0625 280.207031 203.890625 C 280.5 203.722656 280.761719 203.503906 280.90625 203.238281 C 280.949219 203.171875 280.957031 203.101562 280.988281 203.03125 C 280.996094 202.957031 281.019531 202.898438 281.015625 202.804688 C 281.023438 202.632812 281.003906 202.464844 280.980469 202.296875 C 280.917969 201.96875 280.757812 201.667969 280.492188 201.453125 C 279.957031 201.007812 279.175781 200.898438 278.449219 200.828125 C 279.179688 200.792969 279.972656 200.78125 280.660156 201.226562 C 280.664062 201.230469 280.671875 201.238281 280.675781 201.242188 C 280.417969 199.636719 280.261719 198.019531 280.191406 196.390625 C 280.171875 195.941406 280.164062 195.492188 280.171875 195.035156 C 280.171875 194.808594 280.183594 194.578125 280.191406 194.34375 L 280.222656 193.988281 L 280.273438 193.65625 L 280.679688 191.007812 C 280.964844 189.242188 281.257812 187.480469 281.570312 185.71875 C 281.886719 183.960938 282.222656 182.203125 282.59375 180.453125 C 282.464844 182.238281 282.304688 184.015625 282.125 185.792969 C 281.945312 187.566406 281.742188 189.335938 281.527344 191.105469 L 281.191406 193.757812 C 281.066406 194.609375 281.117188 195.480469 281.109375 196.367188 Z M 282.597656 176.769531 L 282.464844 176.019531 C 282.425781 175.777344 282.347656 175.554688 282.234375 175.332031 C 282.015625 174.882812 281.722656 174.464844 281.402344 174.070312 C 281.773438 174.417969 282.121094 174.796875 282.414062 175.230469 C 282.554688 175.441406 282.683594 175.6875 282.761719 175.945312 L 282.945312 176.515625 Z M 272.082031 175.332031 C 271.972656 175.554688 271.894531 175.777344 271.855469 176.019531 L 271.71875 176.769531 L 271.363281 176.546875 L 271.558594 175.945312 C 271.632812 175.6875 271.761719 175.441406 271.90625 175.230469 C 272.199219 174.796875 272.542969 174.417969 272.914062 174.070312 C 272.59375 174.464844 272.304688 174.882812 272.082031 175.332031 Z M 276.855469 163.78125 L 276.855469 163.066406 C 277.035156 163.1875 277.160156 163.460938 277.160156 163.78125 C 277.160156 164.210938 276.929688 164.5625 276.648438 164.5625 C 276.367188 164.5625 276.140625 164.210938 276.140625 163.78125 C 276.140625 163.460938 276.265625 163.1875 276.445312 163.066406 L 276.445312 163.78125 Z M 280.699219 171.394531 C 280.582031 171.378906 280.457031 171.363281 280.324219 171.347656 C 280.257812 171.339844 280.191406 171.332031 280.121094 171.324219 C 280.054688 171.316406 279.984375 171.308594 279.917969 171.300781 C 279.894531 171.296875 279.867188 171.292969 279.84375 171.289062 C 279.84375 170.488281 279.851562 169.199219 279.875 168.636719 C 279.835938 168.441406 279.765625 168.261719 279.679688 168.09375 C 279.585938 167.910156 279.472656 167.742188 279.332031 167.597656 C 279.210938 167.46875 279.074219 167.359375 278.925781 167.265625 L 278.925781 162.320312 C 278.925781 161.644531 278.378906 161.097656 277.703125 161.097656 L 276.617188 161.097656 C 275.941406 161.097656 275.394531 161.644531 275.394531 162.320312 L 275.394531 166.796875 C 275.730469 166.628906 276.105469 166.53125 276.507812 166.53125 L 277.8125 166.53125 C 277.976562 166.53125 278.140625 166.75 278.296875 167.011719 C 278.140625 166.972656 277.980469 166.9375 277.8125 166.9375 L 276.507812 166.9375 C 276.097656 166.9375 275.71875 167.0625 275.394531 167.265625 C 275.242188 167.359375 275.105469 167.46875 274.984375 167.597656 C 274.847656 167.742188 274.734375 167.910156 274.640625 168.09375 C 274.550781 168.261719 274.480469 168.441406 274.441406 168.636719 C 274.476562 169.375 274.480469 169.980469 274.472656 170.46875 C 275.078125 170.398438 275.726562 170.324219 276.277344 170.273438 C 276.332031 170.269531 276.484375 170.253906 277.160156 170.253906 C 277.835938 170.253906 277.984375 170.269531 278.042969 170.273438 C 278.347656 170.300781 278.6875 170.773438 279.03125 171.195312 C 278.664062 171.15625 278.296875 171.117188 277.964844 171.085938 C 277.816406 171.070312 277.398438 171.070312 277.160156 171.070312 C 276.921875 171.070312 276.503906 171.070312 276.355469 171.085938 C 275.75 171.140625 275.03125 171.222656 274.402344 171.300781 C 274.332031 171.308594 274.265625 171.316406 274.199219 171.324219 C 274.128906 171.332031 274.0625 171.339844 273.996094 171.347656 C 273.863281 171.363281 273.734375 171.378906 273.621094 171.394531 C 273.679688 170.617188 273.703125 169.242188 273.523438 166.960938 C 273.253906 163.480469 272.097656 160.40625 271.765625 159.578125 C 271.886719 159.285156 272.269531 158.640625 273.3125 158.359375 C 274.078125 158.152344 275.554688 158.027344 277.160156 158.027344 C 278.765625 158.027344 280.238281 158.152344 281.007812 158.359375 C 282.050781 158.640625 282.433594 159.285156 282.554688 159.578125 C 282.21875 160.40625 281.0625 163.480469 280.792969 166.960938 C 280.617188 169.242188 280.640625 170.617188 280.699219 171.394531 Z M 284.808594 176.429688 C 284.566406 175.402344 283.84375 174.425781 283.125 173.652344 C 283.125 173.652344 283.140625 173.660156 283.140625 173.660156 L 283.023438 173.546875 C 282.964844 173.484375 282.90625 173.414062 282.847656 173.355469 C 282.84375 173.355469 282.84375 173.359375 282.839844 173.363281 C 282.839844 173.363281 282.839844 173.363281 282.835938 173.363281 L 282.210938 172.753906 L 281.996094 171.945312 C 281.992188 171.941406 281.726562 170.765625 282.011719 167.054688 C 282.308594 163.269531 283.75 159.878906 283.765625 159.847656 L 283.839844 159.671875 L 283.804688 159.484375 C 283.789062 159.414062 283.433594 157.746094 281.324219 157.179688 C 280.449219 156.945312 278.890625 156.804688 277.160156 156.804688 C 275.429688 156.804688 273.871094 156.945312 272.992188 157.179688 C 270.886719 157.746094 270.53125 159.414062 270.515625 159.484375 L 270.476562 159.671875 L 270.554688 159.847656 C 270.566406 159.878906 272.011719 163.269531 272.304688 167.054688 C 272.59375 170.765625 272.324219 171.941406 272.324219 171.945312 L 272.109375 172.753906 L 272.089844 172.824219 L 272.996094 172.707031 C 273.015625 172.703125 275.070312 172.433594 276.46875 172.300781 C 276.515625 172.296875 276.746094 172.289062 277.160156 172.289062 C 277.574219 172.289062 277.800781 172.296875 277.847656 172.300781 C 278.949219 172.40625 281.566406 173.179688 282.644531 173.507812 C 282.519531 173.585938 282.378906 173.640625 282.226562 173.640625 C 282.191406 173.640625 282.15625 173.636719 282.121094 173.632812 L 281.214844 173.515625 C 281.195312 173.511719 279.148438 173.246094 277.785156 173.113281 C 277.757812 173.113281 277.566406 173.105469 277.160156 173.105469 C 276.75 173.105469 276.5625 173.113281 276.546875 173.113281 C 275.167969 173.246094 273.121094 173.511719 273.101562 173.515625 L 272.195312 173.632812 C 272.160156 173.636719 272.125 173.640625 272.089844 173.640625 C 271.859375 173.640625 271.632812 173.539062 271.480469 173.363281 C 271.476562 173.359375 271.476562 173.355469 271.472656 173.355469 C 270.667969 174.160156 269.785156 175.269531 269.511719 176.429688 C 270.292969 177.121094 271.570312 178.054688 272.980469 178.285156 C 275.390625 178.683594 277.125 178.621094 277.144531 178.621094 C 277.191406 178.621094 278.933594 178.683594 281.335938 178.285156 C 282.640625 178.074219 283.832031 177.257812 284.621094 176.589844 C 283.785156 177.355469 282.726562 178.882812 281.46875 179.089844 C 279.589844 179.398438 278.125 179.441406 277.488281 179.441406 C 277.28125 179.441406 277.160156 179.4375 277.144531 179.433594 C 277.101562 179.4375 275.339844 179.5 272.847656 179.089844 C 271.496094 178.867188 270.289062 178.113281 269.429688 177.425781 C 269.621094 180.65625 272.472656 194.90625 272.472656 198.316406 C 272.472656 201.847656 271.113281 201.78125 271.113281 203.476562 C 271.113281 204.429688 272.140625 204.957031 272.902344 205.261719 C 275.25 206.195312 277.84375 206.289062 280.273438 205.632812 C 281.203125 205.382812 282.441406 205.035156 282.996094 204.171875 C 283.128906 203.960938 283.203125 203.726562 283.203125 203.476562 C 283.203125 201.78125 281.84375 201.847656 281.84375 198.316406 C 281.84375 194.90625 285.15625 180.300781 284.808594 176.429688 " fill-opacity="1" fill-rule="nonzero"/></g><path fill="#000000" d="M 275.019531 158.488281 C 274.710938 158.484375 274.394531 158.511719 274.082031 158.609375 C 274.058594 158.617188 274.035156 158.625 274.011719 158.632812 C 273.878906 158.675781 273.746094 158.730469 273.621094 158.808594 C 273.460938 158.910156 273.367188 159.011719 273.25 159.113281 C 273.175781 159.191406 273.105469 159.269531 273.035156 159.351562 C 272.914062 159.488281 272.808594 159.640625 272.730469 159.820312 C 272.722656 159.839844 272.710938 159.855469 272.703125 159.875 C 272.71875 159.871094 272.730469 159.863281 272.746094 159.859375 C 273.03125 159.75 273.285156 159.632812 273.535156 159.496094 C 273.808594 159.332031 273.992188 159.226562 274.253906 159.128906 C 274.457031 159.058594 274.675781 158.996094 274.898438 158.9375 C 274.953125 158.921875 275.007812 158.90625 275.066406 158.890625 C 275.347656 158.816406 275.636719 158.75 275.9375 158.652344 C 275.703125 158.566406 275.460938 158.523438 275.214844 158.5 C 275.152344 158.496094 275.085938 158.492188 275.019531 158.488281 " fill-opacity="1" fill-rule="nonzero"/><path fill="#000000" d="M 281.613281 159.875 C 281.605469 159.855469 281.59375 159.839844 281.585938 159.820312 C 281.511719 159.640625 281.402344 159.488281 281.285156 159.351562 C 281.214844 159.269531 281.140625 159.191406 281.070312 159.113281 C 280.953125 159.011719 280.855469 158.910156 280.699219 158.808594 C 280.570312 158.730469 280.4375 158.675781 280.304688 158.632812 C 280.28125 158.625 280.257812 158.617188 280.238281 158.609375 C 279.925781 158.511719 279.609375 158.484375 279.296875 158.488281 C 279.230469 158.492188 279.167969 158.496094 279.101562 158.5 C 278.859375 158.523438 278.617188 158.566406 278.382812 158.652344 C 278.683594 158.75 278.972656 158.816406 279.253906 158.890625 C 279.308594 158.90625 279.367188 158.921875 279.421875 158.9375 C 279.644531 158.996094 279.859375 159.058594 280.0625 159.128906 C 280.328125 159.226562 280.507812 159.332031 280.785156 159.496094 C 281.03125 159.632812 281.289062 159.75 281.574219 159.859375 C 281.585938 159.863281 281.601562 159.871094 281.613281 159.875 " fill-opacity="1" fill-rule="nonzero"/><g transform="matrix(1, 0, 0, 1, 31, 144)"><g clip-path="url(#4ccb9144ef)"><g fill="#000000" fill-opacity="1"><g transform="translate(1.205291, 60.765258)"><g/></g></g><g fill="#000000" fill-opacity="1"><g transform="translate(16.553425, 60.765258)"><g><path d="M 21.375 0.265625 C 19.96875 0.265625 18.304688 0.195312 16.390625 0.0625 C 15.691406 0.0195312 14.828125 -0.0195312 13.796875 -0.0625 C 12.765625 -0.101562 11.617188 -0.125 10.359375 -0.125 L 5.5 -0.0625 C 4.625 -0.0195312 3.445312 0 1.96875 0 C 1.875 0 1.828125 -0.128906 1.828125 -0.390625 C 1.828125 -0.648438 1.875 -0.78125 1.96875 -0.78125 C 3.363281 -0.78125 4.390625 -0.890625 5.046875 -1.109375 C 5.703125 -1.328125 6.148438 -1.753906 6.390625 -2.390625 C 6.628906 -3.023438 6.75 -4 6.75 -5.3125 L 6.75 -35.65625 C 6.75 -36.96875 6.628906 -37.925781 6.390625 -38.53125 C 6.148438 -39.144531 5.710938 -39.570312 5.078125 -39.8125 C 4.441406 -40.0625 3.445312 -40.1875 2.09375 -40.1875 C 1.96875 -40.1875 1.90625 -40.316406 1.90625 -40.578125 C 1.90625 -40.835938 1.96875 -40.96875 2.09375 -40.96875 L 5.578125 -40.90625 C 7.585938 -40.8125 9.179688 -40.765625 10.359375 -40.765625 C 12.148438 -40.765625 13.984375 -40.832031 15.859375 -40.96875 C 18.128906 -41.050781 19.660156 -41.09375 20.453125 -41.09375 C 24.867188 -41.09375 28.789062 -40.21875 32.21875 -38.46875 C 35.644531 -36.726562 38.296875 -34.347656 40.171875 -31.328125 C 42.054688 -28.316406 43 -24.929688 43 -21.171875 C 43 -16.929688 42.023438 -13.179688 40.078125 -9.921875 C 38.140625 -6.671875 35.519531 -4.160156 32.21875 -2.390625 C 28.914062 -0.617188 25.300781 0.265625 21.375 0.265625 Z M 20.71875 -1.25 C 23.507812 -1.25 25.972656 -1.957031 28.109375 -3.375 C 30.253906 -4.789062 31.925781 -6.894531 33.125 -9.6875 C 34.332031 -12.488281 34.9375 -15.835938 34.9375 -19.734375 C 34.9375 -23.441406 34.367188 -26.8125 33.234375 -29.84375 C 32.097656 -32.882812 30.476562 -35.28125 28.375 -37.03125 C 26.28125 -38.78125 23.859375 -39.65625 21.109375 -39.65625 C 18.398438 -39.65625 16.539062 -39.390625 15.53125 -38.859375 C 14.53125 -38.335938 14.03125 -37.226562 14.03125 -35.53125 L 14.03125 -6.03125 C 14.03125 -4.28125 14.488281 -3.046875 15.40625 -2.328125 C 16.320312 -1.609375 18.09375 -1.25 20.71875 -1.25 Z M 20.71875 -1.25 "/></g></g></g><g fill="#000000" fill-opacity="1"><g transform="translate(62.764318, 60.765258)"><g/></g></g><g fill="#000000" fill-opacity="1"><g transform="translate(78.102406, 60.765258)"><g><path d="M 32.515625 -10.421875 C 32.515625 -10.503906 32.601562 -10.546875 32.78125 -10.546875 C 32.90625 -10.546875 33.019531 -10.515625 33.125 -10.453125 C 33.238281 -10.390625 33.296875 -10.335938 33.296875 -10.296875 C 32.859375 -6.878906 32.640625 -3.773438 32.640625 -0.984375 C 32.640625 -0.628906 32.570312 -0.375 32.4375 -0.21875 C 32.3125 -0.0703125 32.050781 0 31.65625 0 L 2.6875 0 C 2.550781 0 2.484375 -0.128906 2.484375 -0.390625 C 2.484375 -0.648438 2.550781 -0.78125 2.6875 -0.78125 C 4.082031 -0.78125 5.097656 -0.890625 5.734375 -1.109375 C 6.367188 -1.328125 6.796875 -1.753906 7.015625 -2.390625 C 7.234375 -3.023438 7.34375 -4 7.34375 -5.3125 L 7.34375 -35.65625 C 7.34375 -36.96875 7.234375 -37.925781 7.015625 -38.53125 C 6.796875 -39.144531 6.359375 -39.570312 5.703125 -39.8125 C 5.046875 -40.0625 4.039062 -40.1875 2.6875 -40.1875 C 2.550781 -40.1875 2.484375 -40.316406 2.484375 -40.578125 C 2.484375 -40.835938 2.550781 -40.96875 2.6875 -40.96875 L 30.484375 -40.96875 C 30.921875 -40.96875 31.140625 -40.769531 31.140625 -40.375 L 31.265625 -31.65625 C 31.265625 -31.570312 31.144531 -31.503906 30.90625 -31.453125 C 30.664062 -31.410156 30.523438 -31.457031 30.484375 -31.59375 C 29.785156 -34.125 28.601562 -36 26.9375 -37.21875 C 25.28125 -38.445312 23.097656 -39.0625 20.390625 -39.0625 L 18.421875 -39.0625 C 17.109375 -39.0625 16.144531 -38.773438 15.53125 -38.203125 C 14.914062 -37.640625 14.609375 -36.769531 14.609375 -35.59375 L 14.609375 -22.21875 L 20.0625 -22.21875 C 22.59375 -22.21875 24.535156 -22.65625 25.890625 -23.53125 C 27.242188 -24.40625 27.921875 -25.628906 27.921875 -27.203125 C 27.921875 -27.335938 28.039062 -27.40625 28.28125 -27.40625 C 28.519531 -27.40625 28.640625 -27.335938 28.640625 -27.203125 L 28.578125 -21.296875 L 28.640625 -18.15625 C 28.734375 -16.664062 28.78125 -15.484375 28.78125 -14.609375 C 28.78125 -14.523438 28.644531 -14.484375 28.375 -14.484375 C 28.113281 -14.484375 27.984375 -14.523438 27.984375 -14.609375 C 27.984375 -16.398438 27.296875 -17.8125 25.921875 -18.84375 C 24.546875 -19.875 22.566406 -20.390625 19.984375 -20.390625 L 14.609375 -20.390625 L 14.609375 -5.578125 C 14.609375 -4.304688 14.847656 -3.363281 15.328125 -2.75 C 15.816406 -2.132812 16.582031 -1.828125 17.625 -1.828125 L 19.796875 -1.828125 C 23.203125 -1.828125 25.929688 -2.523438 27.984375 -3.921875 C 30.035156 -5.328125 31.546875 -7.492188 32.515625 -10.421875 Z M 32.515625 -10.421875 "/></g></g></g><g fill="#000000" fill-opacity="1"><g transform="translate(114.284546, 60.765258)"><g/></g></g><g fill="#000000" fill-opacity="1"><g transform="translate(129.622634, 60.765258)"><g><path d="M 13.96875 -5.578125 C 13.96875 -4.441406 14.050781 -3.617188 14.21875 -3.109375 C 14.394531 -2.609375 14.734375 -2.269531 15.234375 -2.09375 C 15.742188 -1.914062 16.566406 -1.828125 17.703125 -1.828125 L 19.921875 -1.828125 C 23.328125 -1.828125 26.273438 -2.734375 28.765625 -4.546875 C 31.265625 -6.367188 32.925781 -8.828125 33.75 -11.921875 C 33.75 -12.015625 33.835938 -12.0625 34.015625 -12.0625 C 34.109375 -12.0625 34.207031 -12.023438 34.3125 -11.953125 C 34.425781 -11.890625 34.484375 -11.835938 34.484375 -11.796875 C 34.085938 -7.472656 33.890625 -3.867188 33.890625 -0.984375 C 33.890625 -0.628906 33.8125 -0.375 33.65625 -0.21875 C 33.5 -0.0703125 33.25 0 32.90625 0 L 1.96875 0 C 1.875 0 1.828125 -0.128906 1.828125 -0.390625 C 1.828125 -0.648438 1.875 -0.78125 1.96875 -0.78125 C 3.363281 -0.78125 4.378906 -0.890625 5.015625 -1.109375 C 5.648438 -1.328125 6.085938 -1.753906 6.328125 -2.390625 C 6.566406 -3.023438 6.6875 -4 6.6875 -5.3125 L 6.6875 -35.65625 C 6.6875 -36.96875 6.566406 -37.925781 6.328125 -38.53125 C 6.085938 -39.144531 5.640625 -39.570312 4.984375 -39.8125 C 4.328125 -40.0625 3.320312 -40.1875 1.96875 -40.1875 C 1.875 -40.1875 1.828125 -40.316406 1.828125 -40.578125 C 1.828125 -40.835938 1.875 -40.96875 1.96875 -40.96875 L 5.3125 -40.90625 C 7.320312 -40.8125 8.984375 -40.765625 10.296875 -40.765625 C 11.597656 -40.765625 13.253906 -40.8125 15.265625 -40.90625 L 18.609375 -40.96875 C 18.742188 -40.96875 18.8125 -40.835938 18.8125 -40.578125 C 18.8125 -40.316406 18.742188 -40.1875 18.609375 -40.1875 C 17.253906 -40.1875 16.25 -40.0625 15.59375 -39.8125 C 14.9375 -39.570312 14.5 -39.132812 14.28125 -38.5 C 14.070312 -37.875 13.96875 -36.90625 13.96875 -35.59375 Z M 13.96875 -5.578125 "/></g></g></g><g fill="#000000" fill-opacity="1"><g transform="translate(165.34595, 60.765258)"><g/></g></g><g fill="#000000" fill-opacity="1"><g transform="translate(180.684037, 60.765258)"><g><path d="M 14.546875 -39.453125 C 9.347656 -39.453125 5.613281 -36.066406 3.34375 -29.296875 C 3.300781 -29.171875 3.171875 -29.117188 2.953125 -29.140625 C 2.734375 -29.160156 2.625 -29.234375 2.625 -29.359375 C 2.800781 -31.109375 3 -33.367188 3.21875 -36.140625 C 3.4375 -38.921875 3.546875 -41.007812 3.546875 -42.40625 C 3.546875 -42.625 3.664062 -42.734375 3.90625 -42.734375 C 4.144531 -42.734375 4.265625 -42.625 4.265625 -42.40625 C 4.265625 -41.445312 5.507812 -40.96875 8 -40.96875 C 11.757812 -40.832031 16.148438 -40.765625 21.171875 -40.765625 C 23.742188 -40.765625 26.472656 -40.8125 29.359375 -40.90625 L 33.828125 -40.96875 C 35.484375 -40.96875 36.691406 -41.078125 37.453125 -41.296875 C 38.222656 -41.515625 38.71875 -41.953125 38.9375 -42.609375 C 38.976562 -42.785156 39.117188 -42.875 39.359375 -42.875 C 39.597656 -42.875 39.71875 -42.785156 39.71875 -42.609375 C 39.59375 -41.296875 39.453125 -39.195312 39.296875 -36.3125 C 39.140625 -33.425781 39.0625 -31.109375 39.0625 -29.359375 C 39.0625 -29.234375 38.953125 -29.171875 38.734375 -29.171875 C 38.515625 -29.171875 38.382812 -29.234375 38.34375 -29.359375 C 37.6875 -32.722656 36.460938 -35.242188 34.671875 -36.921875 C 32.878906 -38.609375 30.671875 -39.453125 28.046875 -39.453125 C 26.785156 -39.453125 25.945312 -39.179688 25.53125 -38.640625 C 25.113281 -38.097656 24.90625 -37.0625 24.90625 -35.53125 L 24.90625 -5.3125 C 24.90625 -3.957031 25.035156 -2.972656 25.296875 -2.359375 C 25.554688 -1.742188 26.054688 -1.328125 26.796875 -1.109375 C 27.546875 -0.890625 28.726562 -0.78125 30.34375 -0.78125 C 30.476562 -0.78125 30.546875 -0.648438 30.546875 -0.390625 C 30.546875 -0.128906 30.476562 0 30.34375 0 C 28.769531 0 27.523438 -0.0195312 26.609375 -0.0625 L 21.171875 -0.125 L 15.859375 -0.0625 C 14.941406 -0.0195312 13.675781 0 12.0625 0 C 11.925781 0 11.859375 -0.128906 11.859375 -0.390625 C 11.859375 -0.648438 11.925781 -0.78125 12.0625 -0.78125 C 13.632812 -0.78125 14.800781 -0.890625 15.5625 -1.109375 C 16.332031 -1.328125 16.859375 -1.753906 17.140625 -2.390625 C 17.421875 -3.023438 17.5625 -4 17.5625 -5.3125 L 17.5625 -35.65625 C 17.5625 -37.144531 17.363281 -38.148438 16.96875 -38.671875 C 16.582031 -39.191406 15.773438 -39.453125 14.546875 -39.453125 Z M 14.546875 -39.453125 "/></g></g></g><g fill="#000000" fill-opacity="1"><g transform="translate(222.835163, 60.765258)"><g/></g></g><g fill="#000000" fill-opacity="1"><g transform="translate(238.17325, 60.765258)"><g/></g></g><g fill="#000000" fill-opacity="1"><g transform="translate(253.511338, 60.765258)"><g/></g></g><g fill="#000000" fill-opacity="1"><g transform="translate(268.856023, 60.765258)"><g><path d="M 43.515625 -0.78125 C 43.648438 -0.78125 43.71875 -0.648438 43.71875 -0.390625 C 43.71875 -0.128906 43.648438 0 43.515625 0 L 36.1875 0 C 35.488281 0 34.894531 0.0195312 34.40625 0.0625 C 33.925781 0.101562 33.535156 0.125 33.234375 0.125 C 32.535156 0.125 31.929688 -0.0351562 31.421875 -0.359375 C 30.921875 -0.691406 30.3125 -1.289062 29.59375 -2.15625 C 28.875 -3.03125 27.597656 -4.710938 25.765625 -7.203125 C 25.546875 -7.515625 25.289062 -7.851562 25 -8.21875 C 24.71875 -8.59375 24.40625 -9.019531 24.0625 -9.5 L 15.46875 -21.046875 L 14.03125 -19.59375 L 14.03125 -5.3125 C 14.03125 -3.957031 14.140625 -2.972656 14.359375 -2.359375 C 14.578125 -1.742188 15 -1.328125 15.625 -1.109375 C 16.257812 -0.890625 17.28125 -0.78125 18.6875 -0.78125 C 18.851562 -0.78125 18.9375 -0.648438 18.9375 -0.390625 C 18.9375 -0.128906 18.851562 0 18.6875 0 C 17.238281 0 16.097656 -0.0195312 15.265625 -0.0625 L 10.359375 -0.125 L 5.5 -0.0625 C 4.625 -0.0195312 3.445312 0 1.96875 0 C 1.875 0 1.828125 -0.128906 1.828125 -0.390625 C 1.828125 -0.648438 1.875 -0.78125 1.96875 -0.78125 C 3.363281 -0.78125 4.390625 -0.890625 5.046875 -1.109375 C 5.703125 -1.328125 6.148438 -1.753906 6.390625 -2.390625 C 6.628906 -3.023438 6.75 -4 6.75 -5.3125 L 6.75 -35.65625 C 6.75 -36.96875 6.628906 -37.925781 6.390625 -38.53125 C 6.148438 -39.144531 5.710938 -39.570312 5.078125 -39.8125 C 4.441406 -40.0625 3.445312 -40.1875 2.09375 -40.1875 C 1.96875 -40.1875 1.90625 -40.316406 1.90625 -40.578125 C 1.90625 -40.835938 1.96875 -40.96875 2.09375 -40.96875 L 5.578125 -40.90625 C 7.585938 -40.8125 9.179688 -40.765625 10.359375 -40.765625 C 11.671875 -40.765625 13.332031 -40.8125 15.34375 -40.90625 L 18.6875 -40.96875 C 18.8125 -40.96875 18.875 -40.835938 18.875 -40.578125 C 18.875 -40.316406 18.8125 -40.1875 18.6875 -40.1875 C 17.332031 -40.1875 16.335938 -40.050781 15.703125 -39.78125 C 15.066406 -39.519531 14.628906 -39.070312 14.390625 -38.4375 C 14.148438 -37.8125 14.03125 -36.84375 14.03125 -35.53125 L 14.03125 -21.625 L 26.34375 -34.21875 C 27.613281 -35.476562 28.25 -36.632812 28.25 -37.6875 C 28.25 -38.476562 27.898438 -39.09375 27.203125 -39.53125 C 26.503906 -39.96875 25.519531 -40.1875 24.25 -40.1875 C 24.125 -40.1875 24.0625 -40.316406 24.0625 -40.578125 C 24.0625 -40.835938 24.125 -40.96875 24.25 -40.96875 L 27.328125 -40.90625 C 29.253906 -40.8125 31.046875 -40.765625 32.703125 -40.765625 C 34.492188 -40.765625 36.351562 -40.8125 38.28125 -40.90625 L 41.234375 -40.96875 C 41.359375 -40.96875 41.421875 -40.835938 41.421875 -40.578125 C 41.421875 -40.316406 41.359375 -40.1875 41.234375 -40.1875 C 39.222656 -40.1875 37.015625 -39.601562 34.609375 -38.4375 C 32.203125 -37.28125 30.015625 -35.742188 28.046875 -33.828125 L 20.640625 -26.28125 L 30.34375 -13.171875 C 33.1875 -9.109375 35.316406 -6.234375 36.734375 -4.546875 C 38.160156 -2.867188 39.304688 -1.820312 40.171875 -1.40625 C 41.046875 -0.988281 42.160156 -0.78125 43.515625 -0.78125 Z M 43.515625 -0.78125 "/></g></g></g></g></g></svg>